<?xml version="1.0" encoding="UTF-8" standalone="no"?>
<!--
Copyright (c) 2017 Amine Anane. http://digitalkhatt/license

This file is part of DigitalKhatt.

DigitalKhatt is free software: you can redistribute it and/or modify
it under the terms of the GNU Affero General Public License as published by
the Free Software Foundation, either version 3 of the License, or
(at your option) any later version.

DigitalKhatt is distributed in the hope that it will be useful,
but WITHOUT ANY WARRANTY; without even the implied warranty of
MERCHANTABILITY or FITNESS FOR A PARTICULAR PURPOSE.  See the
GNU Affero General Public License for more details.

You should have received a copy of the GNU Affero General Public License
along with DigitalKhatt.  If not, see
<https: //www.gnu.org/licenses />.
-->
<!-- Created with Inkscape (http://www.inkscape.org/) -->

<svg
   xmlns:dc="http://purl.org/dc/elements/1.1/"
   xmlns:cc="http://creativecommons.org/ns#"
   xmlns:rdf="http://www.w3.org/1999/02/22-rdf-syntax-ns#"
   xmlns:svg="http://www.w3.org/2000/svg"
   xmlns="http://www.w3.org/2000/svg"
   xmlns:xlink="http://www.w3.org/1999/xlink"
   xmlns:sodipodi="http://sodipodi.sourceforge.net/DTD/sodipodi-0.dtd"
   xmlns:inkscape="http://www.inkscape.org/namespaces/inkscape"
   width="320.27493"
   height="40.30928"
   viewBox="0 0 84.739407 10.665164"
   version="1.1"
   id="svg8"
   inkscape:version="0.92.2 (5c3e80d, 2017-08-06)"
   sodipodi:docname="ayaframe.svg">
  <defs
     id="defs2">
    <linearGradient
       id="linearGradient6036"
       inkscape:collect="always">
      <stop
         style="stop-color:#ffffff;stop-opacity:1"
         offset="0"
         id="stop6034" />
      <stop
         style="stop-color:#126183;stop-opacity:1"
         offset="1"
         id="stop6032" />
    </linearGradient>
    <linearGradient
       inkscape:collect="always"
       id="linearGradient5022">
      <stop
         style="stop-color:#126183;stop-opacity:1"
         offset="0"
         id="stop5018" />
      <stop
         style="stop-color:#ffffff;stop-opacity:1"
         offset="1"
         id="stop5020" />
    </linearGradient>
    <linearGradient
       inkscape:collect="always"
       id="linearGradient4984">
      <stop
         style="stop-color:#ffffff;stop-opacity:1"
         offset="0"
         id="stop4980" />
      <stop
         id="stop4988"
         offset="0.3184464"
         style="stop-color:#43b4e5;stop-opacity:1" />
      <stop
         id="stop4986"
         offset="0.57392752"
         style="stop-color:#f9fcfe;stop-opacity:1" />
      <stop
         style="stop-color:#43b4e5;stop-opacity:1"
         offset="1"
         id="stop4982" />
    </linearGradient>
    <linearGradient
       id="linearGradient4936"
       inkscape:collect="always">
      <stop
         id="stop4932"
         offset="0"
         style="stop-color:#ffffff;stop-opacity:1" />
      <stop
         id="stop4934"
         offset="1"
         style="stop-color:#43b4e5;stop-opacity:1" />
    </linearGradient>
    <linearGradient
       inkscape:collect="always"
       xlink:href="#linearGradient4984"
       id="linearGradient4882"
       gradientUnits="userSpaceOnUse"
       x1="83.157379"
       y1="121.69547"
       x2="72.749619"
       y2="121.95533" />
    <linearGradient
       inkscape:collect="always"
       xlink:href="#linearGradient4936"
       id="linearGradient4884"
       gradientUnits="userSpaceOnUse"
       x1="60.028851"
       y1="123.06819"
       x2="66.970642"
       y2="123.10363" />
    <linearGradient
       inkscape:collect="always"
       xlink:href="#linearGradient4936"
       id="linearGradient4886"
       gradientUnits="userSpaceOnUse"
       x1="59.525974"
       y1="128.03975"
       x2="52.99992"
       y2="128.03975" />
    <linearGradient
       inkscape:collect="always"
       xlink:href="#linearGradient4936"
       id="linearGradient4888"
       gradientUnits="userSpaceOnUse"
       x1="61.0564"
       y1="127.51101"
       x2="66.962288"
       y2="127.46376" />
    <linearGradient
       inkscape:collect="always"
       xlink:href="#linearGradient4936"
       id="linearGradient4890"
       gradientUnits="userSpaceOnUse"
       x1="58.857807"
       y1="122.811"
       x2="52.908035"
       y2="122.811" />
    <linearGradient
       inkscape:collect="always"
       xlink:href="#linearGradient4984"
       id="linearGradient4892"
       gradientUnits="userSpaceOnUse"
       x1="83.244957"
       y1="128.75229"
       x2="72.772232"
       y2="128.7641" />
    <linearGradient
       inkscape:collect="always"
       xlink:href="#linearGradient4936"
       id="linearGradient4894"
       gradientUnits="userSpaceOnUse"
       x1="228.41423"
       y1="473.43103"
       x2="255.8721"
       y2="473.43103" />
    <radialGradient
       inkscape:collect="always"
       xlink:href="#linearGradient6036"
       id="radialGradient4896"
       gradientUnits="userSpaceOnUse"
       gradientTransform="matrix(1.8906892,0.02091649,-0.01590934,1.4380811,-227.54671,-212.96536)"
       cx="263.93073"
       cy="473.5307"
       fx="263.93073"
       fy="473.5307"
       r="3.9689567" />
    <linearGradient
       inkscape:collect="always"
       xlink:href="#linearGradient4936"
       id="linearGradient4898"
       gradientUnits="userSpaceOnUse"
       x1="224.83939"
       y1="473.54172"
       x2="197.09023"
       y2="473.38742" />
    <radialGradient
       inkscape:collect="always"
       xlink:href="#linearGradient5022"
       id="radialGradient4900"
       gradientUnits="userSpaceOnUse"
       gradientTransform="matrix(0.99993895,-0.01104953,0.01913769,1.7318855,-2.3457945,-89.15263)"
       cx="69.828125"
       cy="122.87808"
       fx="69.828125"
       fy="122.87808"
       r="0.87285489" />
    <radialGradient
       inkscape:collect="always"
       xlink:href="#linearGradient5022"
       id="radialGradient4902"
       gradientUnits="userSpaceOnUse"
       gradientTransform="matrix(2.1066863,-0.01301988,0.00410317,0.66391611,-71.411066,42.942117)"
       cx="63.823341"
       cy="125.3446"
       fx="63.823341"
       fy="125.3446"
       r="1.282984" />
    <radialGradient
       inkscape:collect="always"
       xlink:href="#linearGradient5022"
       id="radialGradient4904"
       gradientUnits="userSpaceOnUse"
       gradientTransform="matrix(1,0,0,0.88249016,0,14.570622)"
       cx="64.037384"
       cy="124.7953"
       fx="64.037384"
       fy="124.7953"
       r="1.0674005" />
    <radialGradient
       inkscape:collect="always"
       xlink:href="#linearGradient5022"
       id="radialGradient4906"
       gradientUnits="userSpaceOnUse"
       gradientTransform="matrix(1,0,0,0.96582869,0,4.2804003)"
       cx="63.617016"
       cy="125.26298"
       fx="63.617016"
       fy="125.26298"
       r="0.81000906" />
    <radialGradient
       inkscape:collect="always"
       xlink:href="#linearGradient5022"
       id="radialGradient8625"
       gradientUnits="userSpaceOnUse"
       gradientTransform="matrix(3.7792968,-0.041762,0.07233143,6.545709,-269.86939,-790.27994)"
       cx="69.828125"
       cy="122.87808"
       fx="69.828125"
       fy="122.87808"
       r="0.87285489" />
  </defs>
  <sodipodi:namedview
     id="base"
     pagecolor="#ffffff"
     bordercolor="#666666"
     borderopacity="1.0"
     inkscape:pageopacity="0.0"
     inkscape:pageshadow="2"
     inkscape:zoom="8"
     inkscape:cx="134.02362"
     inkscape:cy="23.114936"
     inkscape:document-units="px"
     inkscape:current-layer="layer1"
     showgrid="false"
     inkscape:window-width="3840"
     inkscape:window-height="2080"
     inkscape:window-x="-11"
     inkscape:window-y="-11"
     inkscape:window-maximized="1"
     inkscape:snap-bbox="true"
     inkscape:snap-global="true"
     inkscape:measure-start="263.973,664.219"
     inkscape:measure-end="263.973,666.138"
     inkscape:lockguides="false"
     units="px"
     fit-margin-top="0"
     fit-margin-left="0"
     fit-margin-right="0"
     fit-margin-bottom="0" />
  <metadata
     id="metadata5">
    <rdf:RDF>
      <cc:Work
         rdf:about="">
        <dc:format>image/svg+xml</dc:format>
        <dc:type
           rdf:resource="http://purl.org/dc/dcmitype/StillImage" />
        <dc:title />
      </cc:Work>
    </rdf:RDF>
  </metadata>
  <g
     inkscape:groupmode="layer"
     id="layer3"
     inkscape:label="image"
     style="display:inline"
     transform="translate(-49.308434,-119.94227)" />
  <g
     inkscape:label="Layer 1"
     inkscape:groupmode="layer"
     id="layer1"
     style="display:inline"
     transform="translate(-49.308434,-119.94227)">
    <g
       id="g6200">
      <g
         inkscape:label="frames"
         id="g6124"
         style="display:inline">
        <path
           style="fill:#ffffff;fill-opacity:1;fill-rule:evenodd;stroke:#000000;stroke-width:0.75590551;stroke-linecap:butt;stroke-linejoin:miter;stroke-miterlimit:4;stroke-dasharray:none;stroke-opacity:1"
           d="m 348.92744,493.25545 -120.1118,9.8e-4 -1.93845,-2.60247 -1.90329,2.60247 h -38.23229 l 0.11161,-39.55332 v 0 h 38.12068 l 1.90329,2.75168 1.93845,-2.75168 120.11162,0.0322"
           id="path8924"
           inkscape:connector-curvature="0"
           transform="scale(0.26458333)" />
        <path
           style="display:inline;opacity:1;fill:none;fill-opacity:1;fill-rule:nonzero;stroke:#000000;stroke-width:0.37795275;stroke-linecap:round;stroke-linejoin:round;stroke-miterlimit:4;stroke-dasharray:none;stroke-opacity:1"
           d="m 225.30636,488.57923 c 0.31576,0.30312 1.56708,1.84065 1.8432,2.12947 -0.20129,-0.32104 -1.45304,-1.85348 -1.8432,-2.12947 v 0"
           id="path8649"
           transform="scale(0.26458333)"
           inkscape:connector-curvature="0" />
        <path
           style="display:inline;opacity:1;fill:#1c7897;fill-opacity:1;fill-rule:nonzero;stroke:#000000;stroke-width:0.09996202;stroke-linecap:round;stroke-linejoin:round;stroke-miterlimit:4;stroke-dasharray:none;stroke-opacity:1"
           d="M 93.711268,120.73421 H 60.648044 c -0.103645,0.20497 -0.167239,0.3402 -0.277805,0.50177 0.06619,0.14478 0.516836,0.5561 0.650626,0.65423 -0.09939,0.0913 -0.160361,0.12311 -0.215329,0.17622 -0.07841,0.0757 -0.173164,0.20904 -0.291746,0.3638 -0.259306,-0.25491 -0.573591,-0.63247 -0.666636,-0.79375 -0.09335,-0.15461 -0.345873,-0.58588 -0.483838,-0.90227 h -9.22856 v 9.08939 h 9.276066 c 0.06776,-0.14306 0.149545,-0.40011 0.228236,-0.54258 -0.206628,-0.19211 -0.438725,-0.38831 -0.697616,-0.57362 0.08363,-0.0786 0.171116,-0.16181 0.223588,-0.21187 0.08707,-0.083 0.19377,-0.22263 0.325832,-0.38241 0.259815,0.25492 0.576358,0.63501 0.66973,0.79686 0.08447,0.13988 0.294989,0.60887 0.437881,0.91362 l 32.995954,-0.001"
           id="path8643"
           inkscape:connector-curvature="0"
           sodipodi:nodetypes="ccccsccccccccccccc" />
        <path
           style="display:inline;opacity:1;fill:none;fill-opacity:1;fill-rule:nonzero;stroke:#000000;stroke-width:0.37795275;stroke-linecap:round;stroke-linejoin:round;stroke-miterlimit:4;stroke-dasharray:none;stroke-opacity:1"
           d="m 226.81166,456.68191 c 0,10e-6 1.61168,2.1134 1.99358,2.35881 0.0184,0.0792 -1.33922,-1.39151 -1.99358,-2.35881 v 0"
           id="rect4842"
           transform="scale(0.26458333)"
           inkscape:connector-curvature="0" />
      </g>
      <path
         sodipodi:nodetypes="cczccscccczcccc"
         inkscape:connector-curvature="0"
         d="m 93.778195,120.09423 c -3.143454,0.008 -8.99313,0.0353 -12.136563,0 0.04922,-0.0164 -0.749499,0.98027 -1.659635,1.00777 -0.910137,0.0275 -1.833728,-0.97671 -1.824028,-1.04451 l -0.0079,1.54976 c 0,0 -0.333038,-0.56939 -1.509419,-0.60899 -1.196672,0.0213 -2.260154,0.92768 -2.260154,0.92768 0,0 -0.434313,-0.56377 -0.856097,-0.56377 -0.421784,0 -0.734992,0.41777 -0.734992,0.41777 1.197483,-0.0442 1.199677,1.3111 1.09566,1.71881 2.026813,-1.70789 3.175465,-1.58288 3.616535,-1.58288 0.441071,0 1.091743,0.33076 1.259608,0.42766 l 0.06884,-0.92282 c 1.26673,0.75684 2.770918,-0.33043 2.882218,-0.68647 h 12.071833"
         style="fill:url(#linearGradient4882);fill-opacity:1;fill-rule:evenodd;stroke:#000000;stroke-width:0.1;stroke-linecap:round;stroke-linejoin:round;stroke-miterlimit:4;stroke-dasharray:none;stroke-opacity:1"
         id="path8611" />
      <path
         id="path4789"
         style="display:inline;fill:url(#linearGradient4884);fill-opacity:1;fill-rule:evenodd;stroke:#000000;stroke-width:0.1;stroke-linecap:round;stroke-linejoin:round;stroke-miterlimit:4;stroke-dasharray:none;stroke-opacity:1"
         d="m 58.696432,125.28384 c 0.623756,-0.32146 0.670325,-1.28231 0.670325,-1.28231 0.911296,-0.435 0.917674,-0.85349 1.47201,-1.35733 0.554336,-0.50384 1.476989,-0.77785 1.936133,-0.77785 0.751332,0 1.971735,0.49199 3.037022,1.41228 -0.104017,-0.40771 -0.08876,-1.59101 1.108723,-1.54682 0,0 -0.264592,-0.44481 -0.686376,-0.44481 -0.421784,0 -0.856097,0.56377 -0.856097,0.56377 0,0 -1.063482,-0.90635 -2.260154,-0.92768 -1.196673,-0.0213 -2.052658,0.87778 -2.327932,1.14352 -0.275274,0.26574 -0.70812,1.21031 -1.928845,1.48209 0.214857,0.80186 -0.440104,1.48717 -0.754949,1.48717 v 0.24797"
         inkscape:connector-curvature="0"
         sodipodi:nodetypes="ccssccsccsccc" />
      <path
         sodipodi:nodetypes="cccccccccccccccccsccccssaszsscssccccccccccc"
         inkscape:connector-curvature="0"
         id="path8615"
         d="m 76.453213,121.47786 c -0.03847,-0.002 -0.08143,7.9e-4 -0.114205,0.005 -0.05709,0.008 -0.193495,0.065 -0.179834,0.12815 0.0067,0.0311 0.02344,0.10545 0.04341,0.19586 -0.01077,0.004 -0.02122,0.008 -0.03204,0.0119 -0.03989,-0.0996 -0.07572,-0.18981 -0.08475,-0.21188 -0.01715,-0.0419 -0.118001,-0.0753 -0.26045,-0.0217 -0.14278,0.0537 -0.202478,0.10759 -0.191717,0.14779 0.0063,0.0234 0.06065,0.15013 0.114204,0.27802 -0.0083,0.004 -0.01651,0.007 -0.02479,0.0114 -0.06449,-0.11344 -0.126693,-0.22258 -0.139009,-0.24392 -0.02175,-0.0377 -0.157494,0.009 -0.220144,0.0512 -0.06264,0.0418 -0.199419,0.15594 -0.155028,0.20464 0.01921,0.0211 0.07235,0.11689 0.121955,0.20722 -0.01109,0.007 -0.02199,0.0124 -0.03307,0.0191 -0.06644,-0.0903 -0.125296,-0.17282 -0.140042,-0.18758 -0.03166,-0.0317 -0.196783,0.0129 -0.267684,0.0656 -0.132781,0.12282 -0.150378,0.23214 -0.150378,0.37827 0,0.0381 0.0059,0.0735 0.01704,0.10593 -0.252847,0.18541 -0.499637,0.38761 -0.727086,0.60565 0.102569,-0.90289 -0.424549,-1.44857 -1.240188,-1.44857 0.07818,0.29177 0.706617,0.40272 0.715219,1.29357 0.003,0.30563 -0.130311,0.93383 -1.232007,1.54515 -1.101696,0.61132 -2.608312,1.17862 -2.608312,2.33568 0,0.63241 0.850167,2.31864 1.845323,2.34859 0.634143,0.0191 1.267016,-0.75044 1.263781,-1.42316 -0.0032,-0.67013 -0.301072,-1.23379 -0.875691,-1.24215 -0.574619,-0.008 -0.646983,0.48967 -0.649573,0.59234 -0.0029,0.11566 0.03285,0.53205 0.407875,0.53205 0.375025,0 0.351403,-0.52716 0.351403,-0.52716 0,0 0.287117,0.22578 0.304225,0.63842 0.01711,0.41264 -0.463985,0.96439 -0.756616,0.95586 -0.627665,-0.0183 -0.937346,-0.83346 -1.017236,-0.98499 -0.09369,-0.17769 -0.454868,-0.26094 -0.44779,-0.92559 0.01,-0.93656 2.250109,-1.73727 3.121033,-2.37431 0.870926,-0.63702 1.555464,-1.25925 2.124419,-1.75286 0.568957,-0.49361 1.237231,-0.78106 1.976107,-0.80925 0.738875,-0.0282 1.461926,0.40307 1.461926,0.40307 -0.266176,-0.36976 -1.110825,-0.77498 -1.528112,-0.80003 -0.140096,-0.008 -0.457253,0.0401 -0.633513,0.0863 -0.02793,-0.078 -0.05638,-0.15264 -0.07131,-0.16846 -0.01495,-0.0159 -0.04887,-0.0231 -0.08733,-0.0253 z"
         style="display:inline;fill:#ffffff;fill-opacity:1;fill-rule:evenodd;stroke:#000000;stroke-width:0.1;stroke-linecap:round;stroke-linejoin:round;stroke-miterlimit:4;stroke-dasharray:none;stroke-opacity:1" />
      <path
         inkscape:connector-curvature="0"
         id="path4746"
         d="m 75.146391,122.44587 c 0,0.12121 0.0041,0.33198 -0.160586,0.33198 -0.16469,0 -0.246388,-0.11487 -0.246388,-0.261 0,-0.14613 0.01756,-0.25512 0.15034,-0.37794 0.0709,-0.0527 0.236129,-0.0975 0.267791,-0.0658 0.03166,0.0317 0.300154,0.40299 0.300154,0.40299 0,0 -0.204347,-0.39315 -0.248737,-0.44188 -0.04439,-0.0487 0.09214,-0.16261 0.154785,-0.20436 0.06265,-0.0418 0.198533,-0.0889 0.220291,-0.0512 0.02176,0.0377 0.245343,0.43118 0.245343,0.43118 0,0 -0.184973,-0.43661 -0.195737,-0.47678 -0.01076,-0.0402 0.04878,-0.0938 0.191561,-0.14755 0.142448,-0.0536 0.243334,-0.0204 0.260466,0.0215 0.01713,0.0419 0.161318,0.4023 0.161318,0.4023 0,0 -0.07414,-0.33476 -0.0878,-0.398 -0.01366,-0.0632 0.122586,-0.12058 0.179677,-0.12819 0.06556,-0.009 0.171685,-0.0116 0.201599,0.0201 0.03492,0.037 0.145017,0.38501 0.145017,0.38501"
         style="display:inline;fill:#ffffff;fill-opacity:1;fill-rule:evenodd;stroke:#000000;stroke-width:0.1;stroke-linecap:round;stroke-linejoin:round;stroke-miterlimit:4;stroke-dasharray:none;stroke-opacity:1" />
      <path
         sodipodi:nodetypes="ccsscc"
         inkscape:connector-curvature="0"
         id="path4778"
         d="m 61.288244,125.28383 c -0.623756,-0.32146 -0.670325,-1.28231 -0.670325,-1.28231 -0.911296,-0.435 -0.984491,-0.75326 -1.538827,-1.2571 -0.554336,-0.50384 -1.443581,-0.76115 -1.902725,-0.76115 -0.751332,0 -1.478956,0.63398 -2.544243,1.55427 -1.123752,0.87017 -1.221031,0.87089 -2.485334,1.71288"
         style="fill:none;fill-opacity:1;fill-rule:evenodd;stroke:#000000;stroke-width:0.1;stroke-linecap:round;stroke-linejoin:round;stroke-miterlimit:4;stroke-dasharray:none;stroke-opacity:1" />
      <path
         transform="scale(0.26458333)"
         inkscape:connector-curvature="0"
         id="path8645"
         d="m 233.25977,462.03515 c 2.34637,1.12742 4.2528,1.13598 5.86328,3.18554 1.81206,2.30616 1.30732,4.42373 1.0039,4.84375 -0.3159,-0.67627 -1.70881,-4.26245 -3.68164,-4.28515 -1.94233,-0.022 -2.10476,2.16731 -2.52343,2.03125 -0.41872,-0.1361 -1.40003,-0.6127 -1.36133,-2.8125 0,0 -1.34145,-0.58851 -2.33399,-1.10938 0.86645,-0.77898 1.94469,-1.39235 3.03321,-1.85351 v 0"
         style="display:inline;opacity:1;fill:#ffffff;fill-opacity:1;fill-rule:nonzero;stroke:#000000;stroke-width:0.37795275;stroke-linecap:round;stroke-linejoin:round;stroke-miterlimit:4;stroke-dasharray:none;stroke-opacity:1" />
      <path
         sodipodi:nodetypes="sccccccccccccsccccssszzzzczzccccccccss"
         inkscape:connector-curvature="0"
         id="path4793"
         d="m 63.38141,121.44583 c 0.106287,0.0117 0.149132,0.0887 0.230477,0.14263 0.01715,-0.0419 0.118001,-0.0753 0.26045,-0.0217 0.14278,0.0537 0.202478,0.10759 0.191717,0.14779 -0.0063,0.0234 -0.06065,0.15013 -0.114204,0.27802 0.0083,0.004 0.01651,0.007 0.02479,0.0114 0.06449,-0.11344 0.126693,-0.22258 0.139009,-0.24392 0.02175,-0.0377 0.157494,0.009 0.220144,0.0512 0.06264,0.0418 0.199419,0.15594 0.155028,0.20464 -0.01921,0.0211 -0.07235,0.11689 -0.121955,0.20722 0.01109,0.007 0.02199,0.0124 0.03307,0.0191 0.06644,-0.0903 0.125296,-0.17282 0.140042,-0.18758 0.03166,-0.0317 0.196783,0.0129 0.267684,0.0656 0.132781,0.12282 0.150378,0.23214 0.150378,0.37827 0,0.0381 -0.0059,0.0735 -0.01704,0.10593 0.252847,0.18541 0.445348,0.34167 0.672797,0.55971 -0.0274,-0.89453 0.416039,-1.52421 1.306848,-1.43233 -0.186758,0.26671 -0.718988,0.43242 -0.72759,1.32327 -0.0027,0.30545 0.16118,0.91325 1.232007,1.54515 1.085097,0.64032 2.608312,1.23214 2.608312,2.33568 0,1.03672 -1.284563,2.34859 -1.845323,2.34859 -0.56076,0 -1.272916,-0.66129 -1.269687,-1.33272 0.0032,-0.67143 0.423833,-1.33259 0.881597,-1.33259 0.457764,0 0.623195,0.49439 0.625949,0.60356 0.0028,0.10916 -0.117791,0.52083 -0.384251,0.52083 -0.26646,0 -0.351403,-0.52716 -0.351403,-0.52716 0,0 -0.310741,0.27893 -0.327849,0.69157 -0.01711,0.41264 0.428477,0.90271 0.78024,0.90271 0.351763,0 0.937346,-0.83346 1.017236,-0.98499 0.09369,-0.17769 0.454868,-0.26094 0.44779,-0.92559 -0.01,-0.93656 -2.237581,-1.77068 -3.108505,-2.40772 -0.870926,-0.63702 -1.567992,-1.22584 -2.136947,-1.71945 -0.572051,-0.50753 -1.212618,-0.80811 -1.934346,-0.75914 -0.701385,0 -1.9084,0.99749 -2.1301,1.23412 0.09078,-0.48669 1.334276,-1.68206 2.154525,-1.7313 0.145435,-0.0213 0.338996,0.0413 0.520759,0.0487 0.08278,0.003 0.16439,-0.0714 0.184064,-0.0808 0.06448,-0.0309 0.153238,-0.0466 0.224287,-0.0387 z"
         style="display:inline;fill:#ffffff;fill-opacity:1;fill-rule:evenodd;stroke:#000000;stroke-width:0.1;stroke-linecap:round;stroke-linejoin:round;stroke-miterlimit:4;stroke-dasharray:none;stroke-opacity:1" />
      <path
         id="path8500"
         style="display:inline;fill:url(#linearGradient4886);fill-opacity:1;fill-rule:evenodd;stroke:#000000;stroke-width:0.1;stroke-linecap:round;stroke-linejoin:round;stroke-miterlimit:4;stroke-dasharray:none;stroke-opacity:1"
         d="m 61.288244,125.28383 c -0.623756,0.32146 -0.687029,1.26502 -0.687029,1.26502 -0.911296,0.435 -0.984491,0.75326 -1.538827,1.2571 -0.554336,0.50384 -1.443581,0.76115 -1.902725,0.76115 -0.751332,0 -1.871969,-0.45021 -2.937256,-1.3705 0.104017,0.40771 0.02801,1.63491 -1.16948,1.59072 0,0 0.258992,0.47606 0.680776,0.47606 0.421784,0 0.856097,-0.56377 0.856097,-0.56377 0,0 1.063482,0.90635 2.260154,0.92768 1.196673,0.0213 2.001638,-0.84884 2.298402,-1.13171 0.296764,-0.28288 0.780145,-1.19177 1.958375,-1.4939 -0.214857,-0.80186 0.440104,-1.48717 0.754949,-1.48717 l 4e-6,-0.24797"
         inkscape:connector-curvature="0"
         sodipodi:nodetypes="ccssccscczccc" />
      <path
         sodipodi:nodetypes="ccssccsccsccc"
         inkscape:connector-curvature="0"
         d="m 58.696432,125.28384 c 0.623756,0.32146 0.678677,1.28173 0.678677,1.28173 0.911296,0.435 0.984491,0.75326 1.538827,1.2571 0.554336,0.50384 1.443581,0.76115 1.902725,0.76115 0.751332,0 1.971734,-0.5087 3.037021,-1.42899 -0.104017,0.40771 -0.138873,1.65997 1.058611,1.61578 0,0 -0.247888,0.50949 -0.669672,0.50949 -0.421784,0 -0.856097,-0.56377 -0.856097,-0.56377 0,0 -1.063482,0.90635 -2.260154,0.92768 -1.196673,0.0213 -2.052658,-0.87778 -2.327932,-1.14352 -0.275274,-0.26574 -0.70812,-1.21031 -1.928845,-1.48209 0.214857,-0.80186 -0.440104,-1.48717 -0.754949,-1.48717 l -0.0084,-0.24739"
         style="fill:url(#linearGradient4888);fill-opacity:1;fill-rule:evenodd;stroke:#000000;stroke-width:0.1;stroke-linecap:round;stroke-linejoin:round;stroke-miterlimit:4;stroke-dasharray:none;stroke-opacity:1"
         id="path8498" />
      <path
         sodipodi:nodetypes="cccccccccccccccccsccccsszzzszczzccccccccccc"
         inkscape:connector-curvature="0"
         id="path4807"
         d="m 63.323371,129.06835 c 0.03847,0.002 0.08143,-7.9e-4 0.114205,-0.005 0.05709,-0.008 0.193495,-0.065 0.179834,-0.12815 -0.0067,-0.0311 -0.02344,-0.10545 -0.04341,-0.19586 0.01077,-0.004 0.02122,-0.008 0.03204,-0.0119 0.03989,0.0996 0.07572,0.18981 0.08475,0.21188 0.01715,0.0419 0.118001,0.0753 0.26045,0.0217 0.14278,-0.0537 0.202478,-0.10759 0.191717,-0.14779 -0.0063,-0.0234 -0.06065,-0.15013 -0.114204,-0.27802 0.0083,-0.004 0.01651,-0.007 0.02479,-0.0114 0.06449,0.11344 0.126693,0.22258 0.139009,0.24392 0.02175,0.0377 0.157494,-0.009 0.220144,-0.0512 0.06264,-0.0418 0.199419,-0.15594 0.155028,-0.20464 -0.01921,-0.0211 -0.07235,-0.11689 -0.121955,-0.20722 0.01109,-0.007 0.02199,-0.0124 0.03307,-0.0191 0.06644,0.0903 0.125296,0.17282 0.140042,0.18758 0.03166,0.0317 0.196783,-0.0129 0.267684,-0.0656 0.132781,-0.12282 0.150378,-0.23214 0.150378,-0.37827 0,-0.0381 -0.0059,-0.0735 -0.01704,-0.10593 0.252847,-0.18541 0.445348,-0.34167 0.672797,-0.55971 -0.0274,0.89453 0.328784,1.49885 1.219593,1.40697 -0.186758,-0.26671 -0.631733,-0.40706 -0.640335,-1.29791 -0.0027,-0.30545 0.16118,-0.91325 1.232007,-1.54515 1.085097,-0.64032 2.608312,-1.17862 2.608312,-2.33568 0,-1.01661 -1.159281,-2.34859 -1.845323,-2.34859 -0.686042,0 -1.406551,0.66964 -1.403322,1.34107 0.0032,0.67143 0.448883,1.32424 1.015232,1.32424 0.566349,0 0.673262,-0.42757 0.676062,-0.53674 0.0062,-0.24336 -0.09274,-0.58765 -0.409307,-0.58765 -0.316568,0 -0.427726,0.36847 -0.351403,0.54387 -0.165901,0 -0.486541,-0.31845 -0.486541,-0.69993 0,-0.38148 0.453727,-0.92447 0.913875,-0.91106 0.460148,0.0134 0.937346,0.83346 1.017236,0.98499 0.09369,0.17769 0.454868,0.26094 0.44779,0.92559 -0.01076,0.93276 -2.256671,1.67523 -3.108505,2.40772 -0.870926,0.63702 -1.567992,1.22584 -2.136947,1.71945 -0.572051,0.50753 -1.212618,0.80811 -1.934346,0.75914 -0.358946,0 -1.206817,-0.51306 -1.428517,-0.74969 0.09078,0.48669 0.632693,1.10576 1.44459,1.1884 0.145435,0.0213 0.347348,0.0172 0.529111,0.01 0.08278,-0.003 0.169134,0.0649 0.184064,0.0808 0.01495,0.0159 0.04887,0.0231 0.08733,0.0253 z"
         style="display:inline;fill:#ffffff;fill-opacity:1;fill-rule:evenodd;stroke:#000000;stroke-width:0.1;stroke-linecap:round;stroke-linejoin:round;stroke-miterlimit:4;stroke-dasharray:none;stroke-opacity:1" />
      <path
         inkscape:connector-curvature="0"
         id="path4760"
         d="m 64.630193,128.10034 c 0,-0.12121 -0.0041,-0.33198 0.160586,-0.33198 0.16469,0 0.246388,0.11487 0.246388,0.261 0,0.14613 -0.01756,0.25512 -0.15034,0.37794 -0.0709,0.0527 -0.236129,0.0975 -0.267791,0.0658 -0.03166,-0.0317 -0.300154,-0.40299 -0.300154,-0.40299 0,0 0.204347,0.39315 0.248737,0.44188 0.04439,0.0487 -0.09214,0.16261 -0.154785,0.20436 -0.06265,0.0418 -0.198533,0.0889 -0.220291,0.0512 -0.02176,-0.0377 -0.245343,-0.43118 -0.245343,-0.43118 0,0 0.184973,0.43661 0.195737,0.47678 0.01076,0.0402 -0.04878,0.0938 -0.191561,0.14755 -0.142448,0.0536 -0.243334,0.0204 -0.260466,-0.0215 -0.01713,-0.0419 -0.161318,-0.4023 -0.161318,-0.4023 0,0 0.07414,0.33476 0.0878,0.398 0.01366,0.0632 -0.122586,0.12058 -0.179677,0.12819 -0.06556,0.009 -0.171685,0.0116 -0.201599,-0.0201 -0.106843,-0.0174 -0.190543,-0.32134 -0.182602,-0.37248"
         style="display:inline;fill:#ffffff;fill-opacity:1;fill-rule:evenodd;stroke:#000000;stroke-width:0.1;stroke-linecap:round;stroke-linejoin:round;stroke-miterlimit:4;stroke-dasharray:none;stroke-opacity:1" />
      <path
         inkscape:connector-curvature="0"
         id="path4758"
         d="m 64.638545,122.40208 c 0,0.12121 -0.0041,0.33198 0.160586,0.33198 0.16469,0 0.246388,-0.11487 0.246388,-0.261 0,-0.14613 -0.01756,-0.25512 -0.15034,-0.37794 -0.0709,-0.0527 -0.236129,-0.0975 -0.267791,-0.0658 -0.03166,0.0317 -0.300154,0.40299 -0.300154,0.40299 0,0 0.204347,-0.39315 0.248737,-0.44188 0.04439,-0.0487 -0.09214,-0.16261 -0.154785,-0.20436 -0.06265,-0.0418 -0.198533,-0.0889 -0.220291,-0.0512 -0.02176,0.0377 -0.245343,0.43118 -0.245343,0.43118 0,0 0.184973,-0.43661 0.195737,-0.47678 0.01076,-0.0402 -0.04878,-0.0938 -0.191561,-0.14755 -0.142448,-0.0536 -0.243334,-0.0204 -0.260466,0.0215 -0.01713,0.0419 -0.161318,0.4023 -0.161318,0.4023 0,0 0.07414,-0.33476 0.0878,-0.398 0.01366,-0.0632 -0.122586,-0.12058 -0.179677,-0.12819 -0.06556,-0.009 -0.160577,0.005 -0.201599,0.0201 -0.101883,0.0366 -0.190543,0.32134 -0.182602,0.37248"
         style="display:inline;fill:#ffffff;fill-opacity:1;fill-rule:evenodd;stroke:#000000;stroke-width:0.1;stroke-linecap:round;stroke-linejoin:round;stroke-miterlimit:4;stroke-dasharray:none;stroke-opacity:1"
         sodipodi:nodetypes="csscccccccccccccsc" />
      <path
         transform="scale(0.26458333)"
         inkscape:connector-curvature="0"
         id="path8647"
         d="m 213.32227,476.88476 c 0.3159,0.67627 1.71076,4.26245 3.68359,4.28515 1.94233,0.022 2.10277,-2.16731 2.52148,-2.03125 0.41872,0.1361 1.40003,0.6127 1.36133,2.8125 0,0 1.33621,0.58555 2.32813,1.10547 -0.86212,0.78055 -1.9364,1.3939 -3.02344,1.85742 -2.34714,-1.12822 -4.25633,-1.1355 -5.86719,-3.18554 -1.81207,-2.30616 -1.30732,-4.42374 -1.0039,-4.84375 v 0"
         style="display:inline;opacity:1;fill:#ffffff;fill-opacity:1;fill-rule:nonzero;stroke:#000000;stroke-width:0.37795275;stroke-linecap:round;stroke-linejoin:round;stroke-miterlimit:4;stroke-dasharray:none;stroke-opacity:1" />
      <path
         style="display:inline;fill:#ffffff;fill-opacity:1;fill-rule:evenodd;stroke:#000000;stroke-width:0.37795275;stroke-linecap:round;stroke-linejoin:round;stroke-miterlimit:4;stroke-dasharray:none;stroke-opacity:1"
         clip-path="none"
         d="m 9.0332031,4.9804688 c -1.5397012,0 -4.3717435,1.5073001 -5.9101562,4.4492187 v 7.4355465 c 1.8530742,2.456792 5.7693379,4.036056 8.7929691,5.820313 4.04722,2.388283 4.666454,4.685387 4.65625,5.839844 -0.03251,3.366992 -1.714065,3.896259 -2.419922,4.904297 3.366837,0.347262 4.712934,-1.935506 4.609375,-5.316407 0.85965,0.824088 1.587326,1.414472 2.542969,2.115235 -0.0421,0.12257 -0.06445,0.25639 -0.06445,0.40039 0,0.552303 0.06651,0.965486 0.56836,1.429688 0.267972,0.199181 0.892059,0.367858 1.011718,0.248047 0.05573,-0.05579 0.278186,-0.367693 0.529297,-0.708985 0.04188,0.02532 0.08309,0.04581 0.125,0.07227 -0.187483,0.341405 -0.388332,0.703455 -0.460937,0.783203 -0.167777,0.184063 0.349188,0.615453 0.585937,0.773437 0.236788,0.159497 0.749827,0.335848 0.832032,0.19336 0.04655,-0.08066 0.281649,-0.493126 0.52539,-0.921875 0.0313,0.01663 0.06238,0.02785 0.09375,0.04297 -0.202409,0.483363 -0.407829,0.96234 -0.43164,1.050781 -0.04067,0.151937 0.184968,0.355633 0.724609,0.558594 0.53839,0.202582 0.919556,0.07633 0.984375,-0.08203 0.03413,-0.08341 0.169547,-0.42434 0.320313,-0.800781 0.04089,0.01474 0.08039,0.0298 0.121093,0.04492 -0.07548,0.341707 -0.138739,0.622691 -0.164062,0.740234 -0.05163,0.238678 0.463914,0.454139 0.679687,0.484375 0.123874,0.01591 0.286242,0.02514 0.431641,0.01758 v 0.002 c 0.145361,-0.0083 0.273574,-0.03561 0.330078,-0.0957 0.05643,-0.06009 0.382443,-0.31798 0.695313,-0.306641 0.686978,0.02797 1.419074,0.266051 1.96875,0.185547 3.100153,-0.186104 7.799472,-4.705464 8.142578,-6.544922 -0.837922,0.894349 -5.399878,4.666016 -8.050782,4.666016 -2.72779,0.185083 -5.148464,-0.950917 -7.310546,-2.869141 -2.150382,-1.865613 -4.784484,-4.092365 -8.076172,-6.5 C 12.124334,20.684087 3.7038109,17.531942 3.6660156,13.992188 3.6392641,11.480125 5.0052711,11.165725 5.359375,10.494141 5.6613215,9.9214288 7.4639829,6.82213 9.203125,6.7714844 c 1.739142,-0.050683 3.013886,1.8525251 2.949219,3.4121096 -0.06466,1.559584 -1.238282,2.613281 -1.238282,2.613281 0,0 0.08934,-1.992187 -1.3281245,-1.992187 -1.4175156,0 -1.4637077,1.776842 -1.453125,2.189453 0.010409,0.412611 0.5110048,2.087003 2.3671875,2.060547 1.856183,-0.02702 3.319937,-2.499422 3.332031,-5.03711 0.0122,-2.5376881 -2.616287,-5.0371092 -4.7988279,-5.0371092 z"
         transform="matrix(0.26458333,0,0,0.26458333,49.308434,119.94227)"
         id="path4774"
         inkscape:connector-curvature="0" />
      <path
         inkscape:connector-curvature="0"
         id="path4764"
         d="m 55.335027,128.08364 c 0,-0.12121 0.0041,-0.33198 -0.160586,-0.33198 -0.16469,0 -0.246388,0.11487 -0.246388,0.261 0,0.14613 0.01756,0.25512 0.15034,0.37794 0.0709,0.0527 0.236129,0.0975 0.267791,0.0658 0.03166,-0.0317 0.300154,-0.40299 0.300154,-0.40299 0,0 -0.204347,0.39315 -0.248737,0.44188 -0.04439,0.0487 0.09214,0.16261 0.154785,0.20436 0.06265,0.0418 0.198533,0.0889 0.220291,0.0512 0.02176,-0.0377 0.245343,-0.43118 0.245343,-0.43118 0,0 -0.184973,0.43661 -0.195737,0.47678 -0.01076,0.0402 0.04878,0.0938 0.191561,0.14755 0.142448,0.0536 0.243334,0.0204 0.260466,-0.0215 0.01713,-0.0419 0.161318,-0.4023 0.161318,-0.4023 0,0 -0.07414,0.33476 -0.0878,0.398 -0.01366,0.0632 0.122586,0.12058 0.179677,0.12819 0.06556,0.009 0.171685,0.0116 0.201599,-0.0201 0.106843,-0.0174 0.190543,-0.32134 0.182602,-0.37248"
         style="display:inline;fill:#ffffff;fill-opacity:1;fill-rule:evenodd;stroke:#000000;stroke-width:0.1;stroke-linecap:round;stroke-linejoin:round;stroke-miterlimit:4;stroke-dasharray:none;stroke-opacity:1" />
      <path
         sodipodi:nodetypes="ccssccscczccc"
         inkscape:connector-curvature="0"
         d="m 61.27154,125.26654 c -0.623756,-0.32146 -0.653621,-1.26502 -0.653621,-1.26502 -0.911296,-0.435 -0.984491,-0.75326 -1.538827,-1.2571 -0.554336,-0.50384 -1.443581,-0.76115 -1.902725,-0.76115 -0.751332,0 -1.821395,0.44188 -2.886682,1.36217 0.104017,-0.40771 -0.114442,-1.66832 -1.311926,-1.62413 0,0 0.350864,-0.43432 0.772648,-0.43432 0.421784,0 0.856097,0.56377 0.856097,0.56377 0,0 1.063482,-0.90635 2.260154,-0.92768 1.196673,-0.0213 2.001638,0.84884 2.298402,1.13171 0.296764,0.28288 0.780145,1.19177 1.958375,1.4939 -0.214857,0.80186 0.440104,1.48717 0.754949,1.48717 l -0.0167,0.23068"
         style="fill:url(#linearGradient4890);fill-opacity:1;fill-rule:evenodd;stroke:#000000;stroke-width:0.1;stroke-linecap:round;stroke-linejoin:round;stroke-miterlimit:4;stroke-dasharray:none;stroke-opacity:1"
         id="path4786" />
      <path
         style="display:inline;fill:#ffffff;fill-opacity:1;fill-rule:evenodd;stroke:#000000;stroke-width:0.37795275;stroke-linecap:round;stroke-linejoin:round;stroke-miterlimit:4;stroke-dasharray:none;stroke-opacity:1"
         clip-path="none"
         d="m 27.685547,5.7070312 v 0.00195 c -0.145399,-0.00756 -0.307767,0.00362 -0.431641,0.019531 -0.215773,0.030236 -0.731319,0.2456979 -0.679687,0.484375 0.02532,0.1175433 0.08859,0.3985273 0.164062,0.7402344 -0.0407,0.015118 -0.0802,0.030182 -0.121093,0.044922 C 26.466422,6.6216059 26.331004,6.2806798 26.296875,6.1972656 26.232056,6.0389034 25.85089,5.9126517 25.3125,6.1152344 24.772859,6.318195 24.547219,6.5218911 24.587891,6.6738281 c 0.02381,0.088441 0.229231,0.5674175 0.43164,1.0507813 -0.03137,0.015118 -0.06245,0.026339 -0.09375,0.042969 C 24.68204,7.3388285 24.446939,6.9263582 24.400391,6.8457031 24.318186,6.7032149 23.805147,6.8795664 23.568359,7.0390625 23.33161,7.1970468 22.814645,7.628437 22.982422,7.8125 c 0.0726,0.079748 0.273454,0.4417984 0.460937,0.7832031 -0.04191,0.026457 -0.08312,0.046943 -0.125,0.072266 -0.251111,-0.3412914 -0.473564,-0.6531986 -0.529297,-0.7089844 -0.119659,-0.119811 -0.743746,0.048866 -1.011718,0.2480468 -0.50185,0.4642016 -0.56836,0.8773852 -0.56836,1.4296876 0,0.144 0.02235,0.2778205 0.06445,0.4003899 -0.955643,0.700763 -1.509491,1.054818 -2.369141,1.878907 0.103559,-3.3809009 -1.668319,-5.5386693 -5.035156,-5.1914063 0.705857,1.0080378 2.639363,1.6486328 2.671875,5.0156243 0.0102,1.154457 -0.60903,3.451561 -4.65625,5.839844 -3.0072753,1.774605 -6.896475,3.345255 -8.7617191,5.779297 v 7.541016 C 4.6688375,33.800485 7.4713914,35.283203 9,35.283203 c 2.182541,0 4.811032,-2.497468 4.798828,-5.035156 -0.01209,-2.537688 -1.50695,-5.010539 -3.332031,-5.037109 -1.8250811,-0.02646 -2.3548257,1.647935 -2.3652345,2.060546 -0.010583,0.412611 0.035609,2.189454 1.453125,2.189454 1.4174665,0 1.3281245,-1.992188 1.3281245,-1.992188 0,0 1.173622,1.053697 1.238282,2.613281 0.06467,1.559585 -1.210077,3.462793 -2.949219,3.41211 -1.7391421,-0.05065 -3.8633811,-2.438399 -4.1914062,-3.060547 -0.3280252,-0.622148 -1.3724547,-1.650047 -1.3457032,-4.16211 0.044712,-3.876585 8.9087924,-6.583405 12.3808594,-9.320312 3.291689,-2.407635 5.294931,-4.411731 7.445313,-6.277344 2.414619,-1.6972345 4.582756,-3.054224 7.310546,-2.8691405 1.356647,0 4.560517,1.9396348 5.398438,2.8339845 -0.343106,-1.8394584 -2.390397,-4.1798475 -5.458984,-4.4921876 -0.549676,-0.080504 -1.313022,-0.064322 -2,-0.037109 -0.31287,0.011339 -0.638885,-0.2465461 -0.695313,-0.3066406 -0.0565,-0.060094 -0.184717,-0.087388 -0.330078,-0.095704 z"
         transform="matrix(0.26458333,0,0,0.26458333,49.308434,119.94227)"
         id="path4770"
         inkscape:connector-curvature="0" />
      <path
         sodipodi:nodetypes="cssccccccccccccccc"
         inkscape:connector-curvature="0"
         id="path4766"
         d="m 55.326676,122.44587 c 0,0.12121 0.0041,0.33198 -0.160586,0.33198 -0.16469,0 -0.246388,-0.11487 -0.246388,-0.261 0,-0.14613 0.01756,-0.25512 0.15034,-0.37794 0.0709,-0.0527 0.236129,-0.0975 0.267791,-0.0658 0.03166,0.0317 0.300154,0.40299 0.300154,0.40299 0,0 -0.204347,-0.39315 -0.248737,-0.44188 -0.04439,-0.0487 0.09214,-0.16261 0.154785,-0.20436 0.06265,-0.0418 0.198533,-0.0889 0.220291,-0.0512 0.02176,0.0377 0.245343,0.43118 0.245343,0.43118 0,0 -0.184973,-0.43661 -0.195737,-0.47678 -0.01076,-0.0402 0.04878,-0.0938 0.191561,-0.14755 0.142448,-0.0536 0.243334,-0.0204 0.260466,0.0215 0.01713,0.0419 0.161318,0.4023 0.161318,0.4023 0,0 -0.07414,-0.33476 -0.0878,-0.398 -0.01366,-0.0632 0.122586,-0.12058 0.179677,-0.12819 0.06556,-0.009 0.200918,-0.0158 0.230832,0.0159 0.08179,0.0675 0.16131,0.32552 0.153369,0.37666"
         style="display:inline;fill:#ffffff;fill-opacity:1;fill-rule:evenodd;stroke:#000000;stroke-width:0.1;stroke-linecap:round;stroke-linejoin:round;stroke-miterlimit:4;stroke-dasharray:none;stroke-opacity:1" />
      <path
         transform="scale(0.26458333)"
         inkscape:connector-curvature="0"
         id="path4780"
         d="m 209.33067,460.08956 c -0.0642,-0.031 -0.071,-0.0568 -0.071,-0.26812 v -0.23386 l -0.13894,0.0208 c -0.24815,0.0372 -0.31784,-0.0274 -0.28015,-0.25959 0.0144,-0.089 0.0395,-0.12068 0.1229,-0.15554 0.0576,-0.0241 0.16204,-0.0438 0.23204,-0.0438 0.11624,0 0.12728,-0.007 0.12728,-0.0826 0,-0.0715 0.01,-0.0795 0.071,-0.0594 0.0391,0.0128 0.11364,0.0251 0.16573,0.0274 0.0869,0.004 0.094,-0.004 0.0859,-0.0905 l -0.009,-0.0947 0.10346,0.11658 c 0.10959,0.1235 0.22892,0.17127 0.33986,0.13606 0.0613,-0.0195 0.0655,-0.0363 0.0465,-0.18842 -0.0134,-0.10694 -0.007,-0.19214 0.0164,-0.23676 0.0337,-0.063 0.0574,-0.0687 0.24496,-0.0591 l 0.20765,0.0106 0.0344,-0.12121 c 0.034,-0.11976 0.0818,-0.12846 0.0818,-0.0149 0,0.0749 0.12923,0.13436 0.23443,0.10795 0.0735,-0.0185 0.0813,-0.0352 0.0813,-0.17583 0,-0.12485 0.0138,-0.16512 0.0701,-0.20459 0.20537,-0.14384 0.43492,0.0354 0.43492,0.33963 0,0.0968 0.009,0.10695 0.0941,0.10937 0.0518,10e-4 0.137,0.028 0.18941,0.059 0.0793,0.0469 0.0953,0.0763 0.0953,0.17575 0,0.13953 -0.0505,0.15678 -0.0975,0.0333 -0.0417,-0.10974 -0.0891,-0.13855 -0.16291,-0.0991 -0.0491,0.0263 -0.0552,0.0542 -0.0375,0.17183 0.0177,0.11785 0.0134,0.13751 -0.0268,0.1221 -0.0584,-0.0224 -0.0847,-0.1123 -0.0852,-0.29122 l -4.3e-4,-0.13514 -0.11838,0.004 c -0.0651,0.002 -0.15743,0.011 -0.20516,0.0193 -0.0822,0.0143 -0.0858,0.022 -0.0679,0.14675 0.0193,0.13467 0.13086,0.27371 0.2196,0.27371 0.0251,0 0.0456,0.0142 0.0456,0.0316 0,0.0174 -0.0483,0.0316 -0.1074,0.0316 -0.0915,0 -0.1124,0.0143 -0.14124,0.0971 -0.0376,0.1078 -0.0986,0.0977 -0.0986,-0.0163 0,-0.0774 -0.0679,-0.11106 -0.22549,-0.11188 -0.14216,-7.3e-4 -0.16744,0.17772 -0.0428,0.30233 0.098,0.098 0.10007,0.13918 0.007,0.13918 -0.0395,0 -0.10408,0.0225 -0.14341,0.0501 -0.055,0.0385 -0.0817,0.0417 -0.11545,0.0136 -0.0621,-0.0515 -0.25288,-0.0283 -0.25468,0.031 -0.001,0.0494 -0.0795,0.0477 -0.11046,-0.002 -0.0313,-0.0506 -0.30853,-0.0733 -0.36117,-0.0297 -0.0645,0.0535 -0.0605,0.2181 0.007,0.29273 0.0522,0.0576 0.0519,0.0627 -0.006,0.10508 -0.0714,0.0522 -0.34785,0.0558 -0.45127,0.006 z m 0.27698,-0.19916 c 0.0529,-0.0638 -0.002,-0.18895 -0.0934,-0.21284 -0.12137,-0.0317 -0.21175,0.13356 -0.12207,0.22325 0.0528,0.0528 0.16756,0.0473 0.21543,-0.0104 z m 0.0876,-0.39999 c 0.0168,-0.0872 -0.0816,-0.27605 -0.16334,-0.31327 -0.043,-0.0196 -0.11393,-0.0267 -0.15756,-0.0157 -0.0653,0.0164 -0.0831,0.045 -0.10056,0.16146 -0.0321,0.21404 -0.0174,0.22951 0.21198,0.22344 0.15538,-0.004 0.2019,-0.0165 0.20948,-0.0559 z m 0.43505,0.0379 c 0.0537,0 0.0581,-0.094 0.009,-0.2009 -0.0788,-0.17305 -0.3857,-0.12178 -0.35121,0.0587 0.0215,0.11265 0.14319,0.18625 0.25499,0.15425 0.0231,-0.007 0.0622,-0.012 0.0868,-0.012 z m -0.98117,-0.17362 c 0,-0.11485 -0.007,-0.1255 -0.0764,-0.1178 -0.1034,0.0115 -0.16038,0.064 -0.16038,0.14797 0,0.0951 0.0285,0.1165 0.14092,0.10549 0.0892,-0.009 0.0958,-0.0181 0.0958,-0.13566 z m 1.43631,0.0481 c 0,-0.10805 -0.0984,-0.18939 -0.2414,-0.19953 -0.0762,-0.005 -0.0916,0.007 -0.0999,0.0785 -0.0136,0.11803 0.0905,0.21499 0.23078,0.21499 0.10153,0 0.11048,-0.008 0.11048,-0.094 z m 0.047,-0.38743 c -0.0112,-0.0391 -0.0274,-0.096 -0.0359,-0.12661 -0.0195,-0.0699 -0.1832,-0.15661 -0.27114,-0.14362 -0.0971,0.0143 -0.14179,0.16874 -0.0713,0.24662 0.057,0.063 0.12331,0.0833 0.29406,0.0903 0.0944,0.004 0.1027,-0.003 0.0843,-0.0667 z m 0.40715,0.0217 c 0.0243,-0.0634 -0.0581,-0.22329 -0.1367,-0.26539 -0.0334,-0.0179 -0.099,-0.0325 -0.14577,-0.0325 -0.0823,0 -0.0843,0.004 -0.0641,0.13416 0.0115,0.0738 0.0444,0.15192 0.0732,0.17362 0.075,0.0566 0.25035,0.0502 0.27342,-0.01 z m 0.38258,-0.51914 c 0.0309,-0.05 -0.0141,-0.15434 -0.0824,-0.19091 -0.13055,-0.0699 -0.22322,0.0261 -0.16691,0.17282 0.0216,0.0563 0.21698,0.0704 0.24933,0.0181 z"
         style="opacity:0.447;fill:none;fill-opacity:1;fill-rule:evenodd;stroke:none;stroke-width:0.00596547;stroke-miterlimit:4;stroke-dasharray:none;stroke-opacity:1" />
      <path
         transform="scale(0.26458333)"
         inkscape:connector-curvature="0"
         id="path4911"
         d="m 225.27148,458.29297 c -1.16841,1.06605 -2.53714,2.16041 -4.08398,3.07812 -2.76721,1.64175 -4.95161,1.35404 -6.76367,3.66016 -1.81207,2.30615 -1.30733,4.42373 -1.00391,4.84375 0.31591,-0.67627 1.71077,-4.26248 3.6836,-4.28516 1.94233,-0.022 2.10276,2.16732 2.52148,2.03125 0.41872,-0.1361 1.40007,-0.6127 1.36133,-2.8125 0,0 2.00865,-0.87164 2.92383,-1.42968 0.66187,-0.40357 1.93368,-1.782 2.77734,-2.83789 -0.29011,-0.36746 -0.52538,-0.68973 -0.65039,-0.90625 -0.15993,-0.26465 -0.45178,-0.77596 -0.76563,-1.3418 z"
         style="display:inline;fill:#ffffff;fill-opacity:1;fill-rule:evenodd;stroke:#000000;stroke-width:0.37795275;stroke-linecap:round;stroke-linejoin:round;stroke-miterlimit:4;stroke-dasharray:none;stroke-opacity:1" />
      <path
         transform="scale(0.26458333)"
         inkscape:connector-curvature="0"
         id="path8598"
         d="m 240.14062,476.88477 c -0.3159,0.67627 -1.71076,4.26247 -3.68359,4.28515 -1.94233,0.022 -2.10472,-2.16731 -2.52344,-2.03125 -0.41871,0.1361 -1.40006,0.6127 -1.36132,2.8125 0,0 -2.00865,0.86969 -2.92383,1.42774 -0.701,0.42742 -2.08332,1.94746 -2.91797,3.01953 0.25417,0.32554 0.47393,0.62293 0.58789,0.82031 0.16531,0.27357 0.4726,0.81006 0.79883,1.40039 1.20186,-1.11388 2.63258,-2.26856 4.2539,-3.23047 2.76722,-1.64175 4.95161,-1.35404 6.76368,-3.66015 1.81206,-2.30616 1.30928,-4.42374 1.00585,-4.84375 z"
         style="display:inline;fill:#ffffff;fill-rule:evenodd;stroke:#000000;stroke-width:0.37795275;stroke-linecap:round;stroke-linejoin:round;stroke-miterlimit:4;stroke-dasharray:none;stroke-opacity:1" />
      <path
         id="path8621"
         style="fill:url(#linearGradient4892);fill-opacity:1;fill-rule:evenodd;stroke:#000000;stroke-width:0.1;stroke-linecap:round;stroke-linejoin:round;stroke-miterlimit:4;stroke-dasharray:none;stroke-opacity:1"
         d="M 93.343883,130.46278 H 82.710764 81.652431 c 0.04922,0.0164 -0.743593,-0.98322 -1.653729,-1.01072 -0.910137,-0.0275 -1.833728,0.97671 -1.824028,1.04451 l -0.0079,-1.54976 c 0,0 -0.333038,0.56939 -1.509419,0.60899 -1.196672,-0.0213 -2.260154,-0.92768 -2.260154,-0.92768 0,0 -0.434313,0.56377 -0.856097,0.56377 -0.421784,0 -0.734992,-0.41777 -0.734992,-0.41777 1.197483,0.0442 1.164242,-1.45284 1.060225,-1.86055 1.645259,1.96704 3.187276,1.78368 3.663782,1.76005 0.476505,-0.0236 1.079931,-0.36619 1.247796,-0.46309 l 0.06884,0.92282 c 1.26673,-0.75684 2.825185,0.23618 2.825185,0.68911 h 11.638534"
         inkscape:connector-curvature="0"
         sodipodi:nodetypes="ccczccscccczcccc" />
      <path
         sodipodi:nodetypes="cccccccccccccccccsccccsszzzzzczzccccccccccc"
         inkscape:connector-curvature="0"
         id="path8619"
         d="m 76.453213,129.11846 c -0.03847,0.002 -0.08143,-7.9e-4 -0.114205,-0.005 -0.05709,-0.008 -0.193495,-0.065 -0.179834,-0.12815 0.0067,-0.0311 0.02344,-0.10545 0.04341,-0.19586 -0.01077,-0.004 -0.02122,-0.008 -0.03204,-0.0119 -0.03989,0.0996 -0.07572,0.18981 -0.08475,0.21188 -0.01715,0.0419 -0.118001,0.0753 -0.26045,0.0217 -0.14278,-0.0537 -0.202478,-0.10759 -0.191717,-0.14779 0.0063,-0.0234 0.06065,-0.15013 0.114204,-0.27802 -0.0083,-0.004 -0.01651,-0.007 -0.02479,-0.0114 -0.06449,0.11344 -0.126693,0.22258 -0.139009,0.24392 -0.02175,0.0377 -0.157494,-0.009 -0.220144,-0.0512 -0.06264,-0.0418 -0.199419,-0.15594 -0.155028,-0.20464 0.01921,-0.0211 0.07235,-0.11689 0.121955,-0.20722 -0.01109,-0.007 -0.02199,-0.0124 -0.03307,-0.0191 -0.06644,0.0903 -0.125296,0.17282 -0.140042,0.18758 -0.03166,0.0317 -0.196783,-0.0129 -0.267684,-0.0656 -0.132781,-0.12282 -0.150378,-0.23214 -0.150378,-0.37827 0,-0.0381 0.0059,-0.0735 0.01704,-0.10593 -0.252847,-0.18541 -0.499637,-0.38761 -0.727086,-0.60565 0.102569,0.90289 -0.407844,1.40631 -1.223483,1.40631 0.07818,-0.29177 0.689912,-0.36046 0.698514,-1.25131 0.003,-0.30563 -0.130311,-0.93383 -1.232007,-1.54515 -1.101696,-0.61132 -2.608312,-1.17862 -2.608312,-2.33568 0,-0.89968 1.150929,-2.34859 1.845323,-2.34859 0.694394,0 1.242837,0.59304 1.238724,1.44821 -0.0041,0.85517 -0.391965,1.21075 -0.850634,1.2171 -0.458669,0.006 -0.646796,-0.48317 -0.649573,-0.59234 -0.0028,-0.10917 0.0245,-0.53205 0.407875,-0.53205 0.383377,0 0.351403,0.52716 0.351403,0.52716 0,0 0.287117,-0.22578 0.304225,-0.63842 0.01711,-0.41264 -0.296468,-0.96927 -0.756616,-0.95586 -0.460148,0.0134 -0.937346,0.83346 -1.017236,0.98499 -0.09369,0.17769 -0.454868,0.26094 -0.44779,0.92559 0.01,0.93656 2.250109,1.73727 3.121033,2.37431 0.870926,0.63702 1.555464,1.25925 2.124419,1.75286 0.568957,0.49361 1.237231,0.78106 1.976107,0.80925 0.738875,0.0282 1.461926,-0.40307 1.461926,-0.40307 -0.266176,0.36976 -1.110825,0.77498 -1.528112,0.80003 -0.140096,0.008 -0.457253,-0.0401 -0.633513,-0.0863 -0.02793,0.078 -0.05638,0.15264 -0.07131,0.16846 -0.01495,0.0159 -0.04887,0.0231 -0.08733,0.0253 z"
         style="fill:#ffffff;fill-opacity:1;fill-rule:evenodd;stroke:#000000;stroke-width:0.1;stroke-linecap:round;stroke-linejoin:round;stroke-miterlimit:4;stroke-dasharray:none;stroke-opacity:1" />
      <path
         inkscape:connector-curvature="0"
         id="path8609"
         d="m 75.146391,128.15045 c 0,-0.12121 0.0041,-0.33198 -0.160586,-0.33198 -0.16469,0 -0.246388,0.11487 -0.246388,0.261 0,0.14613 0.01756,0.25512 0.15034,0.37794 0.0709,0.0527 0.236129,0.0975 0.267791,0.0658 0.03166,-0.0317 0.300154,-0.40299 0.300154,-0.40299 0,0 -0.204347,0.39315 -0.248737,0.44188 -0.04439,0.0487 0.09214,0.16261 0.154785,0.20436 0.06265,0.0418 0.198533,0.0889 0.220291,0.0512 0.02176,-0.0377 0.245343,-0.43118 0.245343,-0.43118 0,0 -0.184973,0.43661 -0.195737,0.47678 -0.01076,0.0402 0.04878,0.0938 0.191561,0.14755 0.142448,0.0536 0.243334,0.0204 0.260466,-0.0215 0.01713,-0.0419 0.161318,-0.4023 0.161318,-0.4023 0,0 -0.07414,0.33476 -0.0878,0.398 -0.01366,0.0632 0.122586,0.12058 0.179677,0.12819 0.06556,0.009 0.171685,0.0116 0.201599,-0.0201 0.03492,-0.037 0.145017,-0.38501 0.145017,-0.38501"
         style="fill:#ffffff;fill-opacity:1;fill-rule:evenodd;stroke:#000000;stroke-width:0.1;stroke-linecap:round;stroke-linejoin:round;stroke-miterlimit:4;stroke-dasharray:none;stroke-opacity:1" />
      <path
         transform="scale(0.26458333)"
         inkscape:connector-curvature="0"
         id="path8970"
         d="m 235.72102,485.43364 c -0.49839,-0.12702 -1.64321,-0.60822 -1.58072,-0.66442 0.0279,-0.0251 0.54793,-0.22455 1.1556,-0.44321 1.95239,-0.70252 2.73009,-1.1279 3.50397,-1.91655 1.3426,-1.36824 2.06131,-3.26048 1.80323,-4.74761 -0.10831,-0.62414 -0.2738,-0.97288 -0.46167,-0.97288 -0.12807,0 -0.18767,0.0872 -0.42084,0.61556 -0.66887,1.51575 -1.54517,2.78497 -2.26104,3.27486 -0.52493,0.35922 -0.94488,0.4473 -1.47961,0.31031 -0.61463,-0.15747 -0.93774,-0.45639 -1.41009,-1.30459 -0.13889,-0.24941 -0.32887,-0.51011 -0.42218,-0.57931 l -0.16964,-0.12584 -0.34897,0.17074 c -0.76424,0.37391 -1.23735,1.29751 -1.23735,2.41552 0,0.26717 -0.0238,0.34917 -0.11049,0.38032 -0.0608,0.0218 -0.55084,0.25034 -1.08907,0.50778 l -0.97858,0.46807 -0.7734,-0.79898 c -0.42537,-0.43944 -0.7734,-0.82671 -0.7734,-0.8606 0,-0.0907 0.87484,-0.47621 1.69541,-0.74705 0.39425,-0.13013 0.7376,-0.27022 0.763,-0.31131 0.0254,-0.0411 0.009,-0.26528 -0.0358,-0.49819 -0.28199,-1.45661 0.20055,-2.97988 1.31593,-4.15409 0.44499,-0.46845 1.04631,-0.84664 1.34616,-0.84664 0.077,0 0.16896,-0.0355 0.20433,-0.0789 0.0511,-0.0627 0.12091,-1.72934 0.0858,-2.04901 -0.005,-0.0418 -0.1149,-0.0954 -0.24512,-0.11902 -0.98824,-0.17934 -2.19778,-1.60062 -2.57415,-3.02479 -0.15187,-0.57467 -0.18512,-1.4366 -0.0755,-1.95626 0.0512,-0.24257 0.0805,-0.47373 0.0652,-0.51368 -0.0153,-0.04 -0.31728,-0.16338 -0.671,-0.27427 -0.63298,-0.19845 -2.1268,-0.86535 -2.1268,-0.94949 0,-0.0473 0.73971,-0.67655 1.39669,-1.18816 l 0.4181,-0.32559 1.04482,0.50513 1.04482,0.50514 0.0414,0.42552 c 0.0562,0.57847 0.18714,1.08878 0.37388,1.45729 0.19295,0.38077 0.72372,0.86765 1.0536,0.96649 0.22402,0.0671 0.26125,0.061 0.39486,-0.0645 0.0811,-0.0762 0.25811,-0.34034 0.39328,-0.58694 0.51471,-0.93896 1.0273,-1.3135 1.79925,-1.31464 0.33761,-5e-4 0.48821,0.0354 0.79859,0.19053 0.78304,0.39129 1.6321,1.51262 2.42477,3.20233 0.3417,0.72838 0.41182,0.83653 0.54241,0.83653 0.20006,0 0.36117,-0.36859 0.46014,-1.05272 0.16465,-1.13812 -0.21309,-2.49837 -1.03135,-3.71393 -0.37991,-0.56437 -1.14586,-1.32535 -1.71771,-1.70655 -0.61727,-0.41149 -0.99471,-0.58326 -2.47586,-1.12675 -0.63312,-0.23232 -1.27192,-0.4737 -1.41954,-0.53639 -0.31949,-0.13569 -0.30917,-0.14435 0.51991,-0.43617 0.78997,-0.27805 1.38027,-0.35537 2.35586,-0.3086 1.46729,0.0703 2.84775,0.48921 4.16263,1.26306 0.79571,0.4683 1.41608,0.93921 2.7679,2.10106 2.33974,2.01093 4.13422,3.46568 6.18056,5.01043 1.77965,1.34342 2.59811,1.8587 5.31614,3.34685 l 0.61272,0.33546 -1.18093,0.67408 c -1.60887,0.91836 -1.91764,1.12263 -3.5169,2.32663 -2.69858,2.03163 -4.21073,3.24232 -6.59756,5.28234 -2.20683,1.88617 -2.75923,2.29433 -3.83469,2.83344 -1.31993,0.66165 -2.29951,0.91422 -3.70988,0.95654 -0.70447,0.0211 -1.04026,0.005 -1.31108,-0.0644 z"
         style="opacity:1;fill:url(#linearGradient4894);fill-opacity:1;fill-rule:nonzero;stroke:none;stroke-width:0.02386187;stroke-linejoin:round;stroke-miterlimit:4;stroke-dasharray:none;stroke-opacity:1" />
      <path
         transform="scale(0.26458333)"
         inkscape:connector-curvature="0"
         id="path4910"
         d="m 227.98277,480.52576 c -0.1733,-0.17451 -0.45358,-0.43346 -0.62286,-0.57544 -0.16928,-0.14197 -0.30778,-0.26763 -0.30778,-0.27923 0,-0.0595 0.88304,-0.58559 1.60823,-0.9582 l 0.55412,-0.28472 0.0218,-0.12627 c 0.012,-0.0695 0.0447,-0.28253 0.0728,-0.47351 0.10441,-0.71163 0.34327,-1.51246 0.63438,-2.12697 0.40518,-0.85528 0.87051,-1.42004 1.5123,-1.83545 0.15626,-0.10114 0.30896,-0.20627 0.33935,-0.23363 0.13397,-0.12064 0.0179,-0.27685 -0.38894,-0.52326 -1.05333,-0.63803 -1.88383,-2.33281 -2.07698,-4.23845 -0.0154,-0.15153 -0.0467,-0.29817 -0.0697,-0.32587 -0.023,-0.0277 -0.22718,-0.14325 -0.45377,-0.25678 -0.58991,-0.29558 -0.91975,-0.4843 -1.42212,-0.81369 -0.93497,-0.61304 -1.34549,-0.98427 -2.65204,-2.39823 -0.20813,-0.22524 -0.56804,-0.59612 -0.7998,-0.82418 l -0.42138,-0.41465 0.21619,-0.11994 c 0.30581,-0.16966 0.46282,-0.27854 0.76355,-0.52951 0.22005,-0.18365 0.26987,-0.21257 0.30366,-0.17628 0.0222,0.0239 0.18929,0.21387 0.37125,0.42221 0.65728,0.75258 1.48366,1.51222 2.23436,2.05392 0.88656,0.63974 2.1278,1.25086 3.10937,1.5309 0.1389,0.0396 0.25546,0.0737 0.25903,0.0758 0.004,0.002 -0.0162,0.1239 -0.0439,0.27079 -0.0705,0.37362 -0.0699,1.21349 10e-4,1.6087 0.10085,0.56074 0.30723,1.16247 0.55759,1.62571 0.54878,1.01541 1.4295,1.86534 2.17762,2.10151 0.13238,0.0418 0.17245,0.0686 0.16868,0.11307 -0.003,0.0321 -0.0232,0.1835 -0.0455,0.33656 -0.0321,0.22012 -0.0327,0.33263 -0.003,0.53828 0.0207,0.14299 0.0376,0.31785 0.0376,0.38857 0,0.1153 -0.009,0.13038 -0.0876,0.1461 -0.49397,0.0988 -1.21876,0.62873 -1.73116,1.26575 -0.99939,1.24247 -1.41362,2.8615 -1.10047,4.30124 0.0135,0.0621 -0.0179,0.0784 -0.35597,0.18453 -0.5194,0.16304 -1.05959,0.38323 -1.58109,0.64448 -0.24538,0.12292 -0.45015,0.22349 -0.45505,0.22349 -0.005,0 -0.15069,-0.14278 -0.32398,-0.3173 z"
         style="opacity:1;fill:#ffffff;fill-opacity:1;fill-rule:nonzero;stroke:none;stroke-width:0.01193094;stroke-linejoin:miter;stroke-miterlimit:4;stroke-dasharray:none;stroke-opacity:1" />
      <path
         transform="scale(0.26458333)"
         inkscape:connector-curvature="0"
         id="path4914"
         d="m 228.44092,483.66044 c -1.45915,-1.8285 -3.29365,-3.07822 -5.35021,-3.64476 l -0.35079,-0.0966 0.0468,-0.20879 c 0.072,-0.32131 0.0683,-1.39092 -0.006,-1.73981 -0.23959,-1.12519 -0.74219,-2.0724 -1.49483,-2.8172 -0.15341,-0.15182 -0.36417,-0.34065 -0.46834,-0.41964 -0.20037,-0.15192 -0.72357,-0.42496 -0.81431,-0.42496 -0.0672,0 -0.0684,0.0135 0.0227,-0.25977 0.10366,-0.31088 0.1292,-0.66796 0.0706,-0.98714 -0.0255,-0.13889 -0.0551,-0.27412 -0.0658,-0.3005 -0.0145,-0.0359 0.0343,-0.0714 0.19356,-0.14074 0.34186,-0.14893 0.66325,-0.38402 1.03511,-0.75714 0.4343,-0.43577 0.71194,-0.82402 0.9941,-1.39013 0.38417,-0.77079 0.53048,-1.33396 0.55766,-2.14658 0.0126,-0.376 0.004,-0.58919 -0.0335,-0.8342 -0.0623,-0.40689 -0.0623,-0.41271 0.002,-0.41271 0.0851,0 0.77528,-0.21187 1.14049,-0.3501 0.18597,-0.0704 0.54337,-0.22681 0.79423,-0.34761 l 0.4561,-0.21965 0.25416,0.24688 c 0.31521,0.30619 0.58974,0.5573 0.77386,0.70786 l 0.1409,0.11522 -0.0778,0.0666 c -0.28221,0.24182 -1.18881,0.80021 -1.78986,1.10242 -0.14084,0.0708 -0.26345,0.15398 -0.27247,0.18484 -0.009,0.0308 -0.0323,0.19815 -0.0517,0.37177 -0.10446,0.93443 -0.42323,2.01643 -0.79517,2.699 -0.40312,0.73978 -0.97439,1.35432 -1.51302,1.62762 -0.15082,0.0765 -0.18545,0.12353 -0.18545,0.25174 0,0.081 0.0145,0.0933 0.39459,0.33495 0.32173,0.20453 0.79505,0.68222 1.04025,1.04985 0.53615,0.80385 0.9262,1.92406 1.07822,3.09664 0.0293,0.22571 0.0681,0.42941 0.0863,0.45267 0.0182,0.0233 0.17593,0.11388 0.35048,0.20137 1.16933,0.58619 2.07948,1.18952 2.84273,1.88443 0.28064,0.25552 0.32802,0.30443 1.13642,1.17322 0.31251,0.33586 0.72447,0.76587 0.91545,0.95557 0.31544,0.31332 0.34171,0.34812 0.28681,0.37999 -0.26235,0.15231 -0.64262,0.42996 -0.84427,0.61645 -0.13298,0.12298 -0.256,0.2236 -0.27338,0.2236 -0.0174,0 -0.11945,-0.11009 -0.22683,-0.24465 z"
         style="opacity:1;fill:#ffffff;fill-opacity:1;fill-rule:nonzero;stroke:none;stroke-width:0.01193094;stroke-linejoin:miter;stroke-miterlimit:4;stroke-dasharray:none;stroke-opacity:1" />
      <path
         transform="scale(0.26458333)"
         inkscape:connector-curvature="0"
         id="path5016"
         d="m 263.26202,476.1065 c -0.70108,-0.74636 -1.32461,-1.25579 -2.43931,-1.99291 l -0.86095,-0.56932 0.64795,-0.38915 c 1.29654,-0.7787 2.52291,-1.74692 3.13518,-2.47523 0.15111,-0.17974 0.29021,-0.3289 0.30912,-0.33145 0.0189,-0.003 0.13953,0.13323 0.26804,0.30175 0.57284,0.75115 1.8708,1.84399 3.02519,2.54709 0.30233,0.18414 0.55093,0.34907 0.55243,0.36651 10e-4,0.0174 -0.22671,0.17144 -0.50714,0.34221 -1.16324,0.70837 -2.45831,1.78804 -3.00558,2.50566 -0.34566,0.45326 -0.43541,0.42891 -1.12493,-0.30516 z"
         style="display:inline;opacity:1;fill:url(#radialGradient4896);fill-opacity:1;fill-rule:nonzero;stroke:none;stroke-width:0.02386187;stroke-linejoin:miter;stroke-miterlimit:4;stroke-dasharray:none;stroke-opacity:1" />
      <path
         transform="scale(0.26458333)"
         inkscape:connector-curvature="0"
         id="path8966"
         d="m 215.768,485.55559 c -1.68776,-0.19115 -3.39501,-0.92351 -4.95069,-2.12369 -0.20351,-0.15701 -0.86646,-0.71251 -1.47322,-1.23446 -2.53509,-2.18076 -4.82143,-4.01717 -7.00141,-5.62362 -1.15335,-0.84992 -1.84026,-1.26981 -4.18232,-2.55659 -1.04118,-0.57204 -1.0481,-0.44934 0.0582,-1.03173 2.64877,-1.39439 3.24362,-1.75603 4.75446,-2.89051 1.56062,-1.17185 2.85526,-2.24395 4.65697,-3.85645 1.6213,-1.45105 3.03403,-2.58415 3.92248,-3.14608 1.59751,-1.01039 2.88727,-1.53446 4.20975,-1.71054 0.83908,-0.11172 1.49063,-0.0705 2.23312,0.14113 0.26459,0.0754 1.30479,0.51361 1.27944,0.53896 -0.008,0.008 -0.45778,0.17405 -0.99851,0.368 -1.64851,0.59129 -2.19438,0.84734 -2.87646,1.34924 -0.68331,0.5028 -1.54743,1.5669 -1.93406,2.38166 -0.46011,0.9696 -0.65053,2.05467 -0.51321,2.92458 0.14243,0.90233 0.4599,1.24677 0.69951,0.75893 0.0543,-0.11049 0.26935,-0.55246 0.47796,-0.98215 0.78569,-1.61836 1.62925,-2.63716 2.44903,-2.9578 0.32357,-0.12655 0.85623,-0.12311 1.1999,0.008 0.50098,0.19075 0.81831,0.53096 1.26235,1.35339 0.21893,0.40549 0.37293,0.56991 0.53374,0.56985 0.18466,-9e-5 0.6363,-0.25642 0.86997,-0.49382 0.40924,-0.41574 0.63516,-1.00897 0.72468,-1.90291 0.0266,-0.26548 0.0549,-0.4895 0.063,-0.49782 0.008,-0.008 0.33262,-0.16078 0.72125,-0.3388 0.38862,-0.17801 0.8129,-0.37788 0.94282,-0.44415 l 0.23623,-0.12049 0.67895,0.68527 c 0.37342,0.37689 0.76385,0.78668 0.86762,0.91063 l 0.18867,0.22537 -0.43421,0.20365 c -0.48562,0.22777 -1.29286,0.51389 -1.78823,0.63382 -0.18835,0.0456 -0.33797,0.10718 -0.35251,0.14507 -0.0139,0.0362 0.0108,0.29568 0.0548,0.5766 0.23529,1.50085 -0.2525,2.99408 -1.33934,4.09998 -0.54621,0.55579 -0.8447,0.74029 -1.38393,0.85541 l -0.17857,0.0381 -0.012,1.04467 c -0.0134,1.16636 -0.003,1.2098 0.28078,1.2098 0.19874,0 0.70712,0.26668 1.01669,0.53333 1.33843,1.15287 1.97534,2.97953 1.60902,4.6147 -0.0869,0.38781 -0.0537,0.43067 0.41964,0.54156 0.62913,0.14739 2.0233,0.6851 2.01963,0.77893 -0.006,0.14836 -1.68971,1.59858 -1.80113,1.55119 -0.0278,-0.0118 -0.46232,-0.21398 -0.96567,-0.44926 l -0.91518,-0.42778 -0.0294,-0.46383 c -0.069,-1.08691 -0.48352,-1.89846 -1.15152,-2.2545 -0.30236,-0.16116 -0.48247,-0.18514 -0.6358,-0.0847 -0.0566,0.0371 -0.22219,0.28096 -0.36803,0.54197 -0.4802,0.8594 -0.83263,1.20149 -1.38484,1.34422 -0.74396,0.19228 -1.33744,-0.0361 -2.06601,-0.79498 -0.57592,-0.59989 -1.12111,-1.48194 -1.70868,-2.76444 -0.23311,-0.50882 -0.30099,-0.61964 -0.3938,-0.64294 -0.0882,-0.0221 -0.13331,-0.002 -0.21129,0.0962 -0.15941,0.19993 -0.29592,0.73966 -0.32094,1.26903 -0.0422,0.8937 0.13111,1.68054 0.56648,2.57108 0.3394,0.69422 0.7214,1.22977 1.27531,1.78792 0.79054,0.79659 1.48723,1.18821 3.24159,1.82214 1.36886,0.49464 1.66064,0.61301 1.61631,0.65567 -0.0956,0.092 -0.89014,0.37676 -1.4364,0.51482 -0.52458,0.13258 -0.70183,0.15654 -1.27864,0.17286 -0.3683,0.0104 -0.83825,-1.4e-4 -1.04433,-0.0235 z"
         style="display:inline;opacity:1;fill:url(#linearGradient4898);fill-opacity:1;fill-rule:nonzero;stroke:none;stroke-width:0.01687289;stroke-linejoin:round;stroke-miterlimit:4;stroke-dasharray:none;stroke-opacity:1" />
      <g
         id="g8743">
        <path
           style="display:inline;fill:url(#radialGradient4900);fill-opacity:1;fill-rule:evenodd;stroke:#000000;stroke-width:0.1;stroke-linecap:butt;stroke-linejoin:miter;stroke-miterlimit:4;stroke-dasharray:none;stroke-opacity:1"
           d="m 69.803925,123.04532 c -0.603504,0 -0.761889,-0.42575 -0.779576,-0.72643 -0.02362,-0.4016 0.431129,-0.42522 0.431129,-0.42522 0,0 0.02092,-0.6024 0.387087,-0.6024 0.366165,0 0.398393,0.61421 0.398393,0.61421 0,0 0.383972,0.0322 0.425224,0.34845 0.03544,0.27167 -0.258753,0.79139 -0.862257,0.79139 z"
           id="path8677"
           inkscape:connector-curvature="0"
           sodipodi:nodetypes="zscscsz" />
        <path
           style="fill:#6ec5eb;fill-opacity:1;fill-rule:evenodd;stroke:#000000;stroke-width:0.1;stroke-linecap:butt;stroke-linejoin:round;stroke-miterlimit:4;stroke-dasharray:none;stroke-opacity:1"
           d="m 68.741554,123.17389 c 0,0 0.108963,-0.0563 0.159163,-0.0563 0.0502,0 0.126907,0.008 0.212907,0.108 0.08601,0.1 0.198327,0.74039 0.287838,0.8723 0.08951,0.13191 0.244329,0.28299 0.441118,0.28299 0.196787,0 0.35196,-0.15818 0.446895,-0.28299 0.09494,-0.12481 0.201832,-0.7723 0.287837,-0.8723 0.086,-0.10001 0.162706,-0.108 0.212908,-0.108 0.0502,0 0.159163,0.0563 0.159163,0.0563 0,-0.29741 -0.151511,-0.57736 -0.438571,-0.58861 -0.380614,0 -0.659461,0.4141 -0.668216,0.42655 -0.0088,-0.0124 -0.31433,-0.44175 -0.655079,-0.42655 -0.305474,0 -0.437579,0.30844 -0.445963,0.58861 z"
           id="path8681"
           inkscape:connector-curvature="0"
           sodipodi:nodetypes="csczzzcsccccc" />
      </g>
      <use
         style="display:inline;fill:#43b4e5;fill-opacity:1"
         height="100%"
         width="100%"
         transform="matrix(1,0,0,-1,0,250.56652)"
         id="use8745"
         xlink:href="#g8743"
         y="0"
         x="0" />
      <g
         id="use8756"
         transform="translate(-19.748713)">
        <g
           id="g8634">
          <path
             inkscape:connector-curvature="0"
             id="path4915"
             transform="matrix(0.26458333,0,0,0.26458333,69.057147,119.94227)"
             d="M 3.1230469,5.1152344 V 11.695312 C 5.1920618,11.525566 6.2096867,9.7148879 6.0820312,8.7363281 5.9261182,7.5410525 4.4746094,7.4199219 4.4746094,7.4199219 c 0,0 -0.116388,-2.1354639 -1.3515625,-2.3046875 z"
             style="display:inline;fill:url(#radialGradient8625);fill-opacity:1;fill-rule:evenodd;stroke:#000000;stroke-width:0.37795275;stroke-linecap:butt;stroke-linejoin:miter;stroke-miterlimit:4;stroke-dasharray:none;stroke-opacity:1" />
          <path
             inkscape:connector-curvature="0"
             id="path4917"
             transform="matrix(0.26458333,0,0,0.26458333,69.057147,119.94227)"
             d="m 5.4941406,9.9316406 c -1.1710306,0 -2.0530055,1.0353864 -2.3710937,1.4609374 v 5.369141 c 0.6698659,-0.07549 1.2018261,-0.616462 1.5351562,-1.054688 0.3588284,-0.471723 0.7628324,-2.918922 1.0878907,-3.296875 0.3250393,-0.37799 0.6149476,-0.408203 0.8046874,-0.408203 0.1897323,0 0.6015626,0.212891 0.6015626,0.212891 0,0 0.029424,-0.144687 0.033203,-0.300782 0.00907,-0.377196 -0.2279316,-1.9824214 -1.6914062,-1.9824214 z"
             style="fill:#6ec5eb;fill-opacity:1;fill-rule:evenodd;stroke:#000000;stroke-width:0.37795275;stroke-linecap:butt;stroke-linejoin:round;stroke-miterlimit:4;stroke-dasharray:none;stroke-opacity:1" />
        </g>
        <use
           x="0"
           y="0"
           xlink:href="#g8634"
           id="use8636"
           width="100%"
           height="100%"
           transform="matrix(1,0,0,-1,-1.0583333e-6,250.49991)" />
      </g>
      <g
         id="g4819"
         style="display:inline">
        <path
           style="fill:url(#radialGradient4902);fill-opacity:1;fill-rule:evenodd;stroke:#000000;stroke-width:0.1;stroke-linecap:butt;stroke-linejoin:miter;stroke-miterlimit:4;stroke-dasharray:none;stroke-opacity:1"
           d="m 63.873239,125.26206 c 0,0 0.939621,-0.78454 1.561857,-0.78454 0.476074,0 0.461457,0.46354 0.461457,0.46354 0,0 0.415522,-0.0256 0.415522,0.321 0,0.34661 -0.415522,0.33883 -0.415522,0.33883 0,0 -0.09396,0.48025 -0.461457,0.48025 -0.61806,0 -1.561857,-0.81908 -1.561857,-0.81908 z"
           id="path4812"
           inkscape:connector-curvature="0"
           sodipodi:nodetypes="csczcsc" />
        <path
           style="fill:url(#radialGradient4904);fill-opacity:1;fill-rule:evenodd;stroke:#000000;stroke-width:0.1;stroke-linecap:butt;stroke-linejoin:miter;stroke-miterlimit:4;stroke-dasharray:none;stroke-opacity:1"
           d="m 63.349398,125.1041 c 0,0 0.355825,-1.04828 0.46066,-1.22251 0.104836,-0.17423 0.286435,-0.34001 0.48133,-0.33959 0.259458,5.6e-4 0.113753,0.20042 0.817962,0.18308 0.132835,-0.003 0.262814,0.14464 0.262814,0.31597 0,0.80615 -1.529625,1.28157 -1.529625,1.28157 z"
           id="path4808"
           inkscape:connector-curvature="0"
           sodipodi:nodetypes="czssscc" />
        <use
           x="0"
           y="0"
           xlink:href="#path4808"
           id="use4840"
           width="100%"
           height="100%"
           transform="matrix(1,0,0,-1,0,250.51667)" />
        <path
           sodipodi:nodetypes="ccccccc"
           inkscape:connector-curvature="0"
           id="use4800"
           d="m 63.526576,125.99531 c 0.442942,0 0.380929,-0.45475 0.380929,-0.45475 0.242659,0.0875 0.469518,-0.11732 0.469518,-0.27758 0,-0.16026 -0.226859,-0.36508 -0.469518,-0.27758 0,0 0.06201,-0.45475 -0.380929,-0.45475 l -0.652599,0.73233 z"
           style="fill:url(#radialGradient4906);fill-opacity:1;fill-rule:evenodd;stroke:#000000;stroke-width:0.1;stroke-linecap:butt;stroke-linejoin:miter;stroke-miterlimit:4;stroke-dasharray:none;stroke-opacity:1" />
        <path
           style="fill:#6ec5eb;fill-opacity:1;fill-rule:evenodd;stroke:#000000;stroke-width:0.1;stroke-linecap:butt;stroke-linejoin:round;stroke-miterlimit:4;stroke-dasharray:none;stroke-opacity:1"
           d="m 61.849307,125.25559 c 0,-0.36331 0.350086,-0.49478 0.668839,-0.55958 0.318753,-0.0648 0.511142,-0.18203 0.5773,-0.3012 0.06616,-0.11917 0.09449,-0.54039 0.09449,-0.54039 0,0 0.34697,0.10721 0.34697,0.53744 0,0.43023 -0.411936,0.77811 -0.411936,0.86964 0,0.0915 0.411936,0.50348 0.411936,0.9346 0,0.43112 -0.34697,0.54629 -0.34697,0.54629 0,0 0.01479,-0.51381 -0.09449,-0.62307 -0.10928,-0.10926 -0.280562,-0.23389 -0.5773,-0.29529 -0.296738,-0.0614 -0.66884,-0.19865 -0.66884,-0.56197 z"
           id="path4798"
           inkscape:connector-curvature="0"
           sodipodi:nodetypes="csccssscsscc" />
      </g>
      <use
         transform="matrix(-1,0,0,1,120.03889,0)"
         height="100%"
         width="100%"
         id="use4821"
         xlink:href="#g4819"
         y="0"
         x="0"
         style="display:inline" />
    </g>
    <use
       x="0"
       y="0"
       xlink:href="#g6200"
       id="use6202"
       width="100%"
       height="100%"
       transform="matrix(-1,0,0,1,183.35628,0)" />
    <path
       style="opacity:1;fill:#ffffff;fill-opacity:1;fill-rule:nonzero;stroke:none;stroke-width:0.02386187;stroke-linejoin:miter;stroke-miterlimit:4;stroke-dasharray:none;stroke-opacity:1"
       d="m 324.11164,490.44054 -15.21542,-0.0206 -0.21056,-0.40711 c -0.62313,-1.20481 -2.6958,-2.4729 -4.87129,-2.98034 -0.93538,-0.21818 -2.32296,-0.26895 -3.22569,-0.11804 -0.70172,0.11732 -1.60324,0.39365 -2.09387,0.64182 -0.16494,0.0834 -0.30017,0.14411 -0.30052,0.13485 -0.0167,-0.44952 -0.25881,-3.22837 -0.28491,-3.2706 -0.0664,-0.10746 -0.19001,-0.0679 -0.98552,0.31549 -1.50044,0.72313 -2.76174,1.06195 -4.15851,1.11711 -2.42609,0.0958 -4.91178,-0.71693 -7.05663,-2.30725 -0.26837,-0.19899 -1.19821,-0.98143 -2.06631,-1.73876 -2.72167,-2.37437 -4.22639,-3.61376 -6.06966,-4.99936 -1.30425,-0.98042 -1.96058,-1.39186 -3.8665,-2.42382 -0.80112,-0.43377 -1.45662,-0.80287 -1.45667,-0.82023 -5e-5,-0.0174 0.52371,-0.31196 1.16392,-0.65467 2.44528,-1.30896 3.37439,-1.92298 5.68322,-3.75589 1.35704,-1.07731 2.17271,-1.7621 4.26158,-3.57775 2.01431,-1.75085 2.25553,-1.94755 2.9457,-2.40207 2.49399,-1.64241 5.47133,-2.2747 8.00713,-1.70043 0.92409,0.20927 1.72294,0.4934 2.69813,0.95963 0.63259,0.30245 0.75459,0.34161 0.84092,0.26996 0.0555,-0.0461 0.0877,-0.13449 0.0715,-0.19645 -0.0306,-0.11687 0.1875,-3.14607 0.22951,-3.18807 0.0131,-0.0131 0.21196,0.0615 0.44197,0.16583 2.1125,0.95786 4.72911,0.79808 7.27538,-0.44424 1.18741,-0.57935 2.47644,-1.56533 2.9615,-2.26527 l 0.17804,-0.2569 h 37.51053 37.51054 l 0.12205,0.22663 c 0.17507,0.32509 1.01728,1.09477 1.69112,1.5455 2.51938,1.68518 5.41375,2.23202 7.81199,1.47592 0.29516,-0.0931 0.67442,-0.23881 0.84281,-0.3239 0.16839,-0.0851 0.32262,-0.13827 0.34273,-0.11817 0.0447,0.0447 0.27109,2.8987 0.25005,3.15214 -0.0276,0.33168 0.13334,0.34402 0.69248,0.0531 1.10562,-0.57521 2.61649,-1.0619 3.78077,-1.21788 1.61698,-0.21662 3.81237,0.17946 5.6177,1.01352 1.24911,0.5771 2.02846,1.13468 4.07059,2.91233 3.62611,3.15647 6.01658,5.07872 7.56698,6.08482 0.60351,0.39164 2.11954,1.25475 3.33661,1.89961 0.3212,0.17018 0.584,0.32471 0.584,0.3434 0,0.0187 -0.54691,0.32949 -1.21534,0.69068 -1.92012,1.03755 -2.81061,1.59032 -4.02335,2.4975 -1.87538,1.40286 -3.29839,2.57567 -6.31493,5.20461 -1.66645,1.45232 -2.67252,2.19066 -3.65362,2.68134 -1.77122,0.88583 -3.50512,1.28508 -5.27992,1.21573 -1.41094,-0.0551 -2.65844,-0.38929 -4.20642,-1.12675 -0.70687,-0.33675 -0.83012,-0.37748 -0.9073,-0.29984 -0.0646,0.065 -0.11685,0.47386 -0.1889,1.4788 -0.0548,0.76393 -0.11411,1.48114 -0.13185,1.59379 l -0.0323,0.20484 -0.3137,-0.15896 c -2.40286,-1.21762 -5.93812,-0.86087 -8.55112,0.8629 -0.67424,0.4448 -1.41106,1.18694 -1.6367,1.64853 l -0.17745,0.36302 h -21.63782 c -11.90081,0 -21.97611,0.009 -22.38957,0.0203 -0.41346,0.0112 -7.59868,0.011 -15.96717,-3.1e-4 z"
       id="path4833"
       inkscape:connector-curvature="0"
       transform="scale(0.26458333)" />
  </g>
</svg>
